<svg width="34" height="28" viewBox="0 0 34 28" fill="none" xmlns="http://www.w3.org/2000/svg">
<path d="M15.1456 1.59065C15.8193 -0.0772173 18.1807 -0.0772142 18.8544 1.59065L21.6585 8.53229C21.9639 9.28826 22.6976 9.78319 23.5129 9.78319H31.488C33.5287 9.78319 34.259 12.4803 32.4971 13.5099L26.8482 16.8111C25.9909 17.3121 25.631 18.3663 26.0029 19.287L28.325 25.0353C29.0394 26.8039 27.1082 28.4736 25.4615 27.5112L18.0091 23.1561C17.3857 22.7918 16.6143 22.7918 15.9909 23.1561L8.53853 27.5112C6.89175 28.4736 4.96061 26.8038 5.67501 25.0353L7.99708 19.287C8.369 18.3663 8.00909 17.3121 7.15177 16.8111L1.50285 13.5099C-0.258996 12.4803 0.471323 9.78319 2.51196 9.78319H10.4871C11.3024 9.78319 12.0361 9.28826 12.3415 8.53228L15.1456 1.59065Z" fill="#FFBF00"/>
</svg>
