<svg width="32" height="36" viewBox="0 0 32 36" fill="none" xmlns="http://www.w3.org/2000/svg">
<path d="M26.4999 33.758C27.6597 33.758 28.5999 32.6784 28.5999 31.3466C28.5999 30.0149 27.6597 28.9352 26.4999 28.9352C25.3401 28.9352 24.3999 30.0149 24.3999 31.3466C24.3999 32.6784 25.3401 33.758 26.4999 33.758Z" stroke="#40150D" stroke-width="3" stroke-linecap="round" stroke-linejoin="round"/>
<path d="M12.4999 33.758C13.6597 33.758 14.5999 32.6784 14.5999 31.3466C14.5999 30.0149 13.6597 28.9352 12.4999 28.9352C11.3401 28.9352 10.3999 30.0149 10.3999 31.3466C10.3999 32.6784 11.3401 33.758 12.4999 33.758Z" stroke="#40150D" stroke-width="3" stroke-linecap="round" stroke-linejoin="round"/>
<path d="M6.2 4.82083H30L27.2 22.5047H9L6.2 4.82083ZM6.2 4.82083C5.96666 3.74908 4.8 1.60559 2 1.60559" stroke="#40150D" stroke-width="3" stroke-linecap="round" stroke-linejoin="round"/>
<path d="M27.1997 22.5047H8.99971H6.52279C4.02475 22.5047 2.69971 23.7605 2.69971 25.7199C2.69971 27.6793 4.02475 28.9352 6.52279 28.9352H26.4997" stroke="#40150D" stroke-width="3" stroke-linecap="round" stroke-linejoin="round"/>
</svg>
